HIERARCHY
ROOT Hips
{
	OFFSET 49.811501 6.178596 83.879303
	CHANNELS 6 Xposition Yposition Zposition Xrotation Yrotation Zrotation
	JOINT spine
	{
		OFFSET 0.000000 -0.342408 5.954376
		CHANNELS 3 Xrotation Yrotation Zrotation
		JOINT spine1
		{
			OFFSET 0.000000 -0.000001 8.856018
			CHANNELS 3 Xrotation Yrotation Zrotation
			JOINT spine2
			{
				OFFSET 0.000000 -0.000001 8.485672
				CHANNELS 3 Xrotation Yrotation Zrotation
				JOINT Neck
				{
					OFFSET 0.000000 -1.038703 21.786301
					CHANNELS 3 Xrotation Yrotation Zrotation
					JOINT Head
					{
						OFFSET 0.000000 -0.000001 6.582199
						CHANNELS 3 Xrotation Yrotation Zrotation
						End Site
						{
							OFFSET 0.000000 5.254357 15.932602
						}
					}
				}
				JOINT RightShoulder
				{
					OFFSET -3.573071 0.497524 9.163864
					CHANNELS 3 Xrotation Yrotation Zrotation
					JOINT RightArm
					{
						OFFSET 0.000000 -0.000002 12.019196
						CHANNELS 3 Xrotation Yrotation Zrotation
						JOINT RightArmRoll
						{
							OFFSET 0.000000 -0.000001 6.067551
							CHANNELS 3 Xrotation Yrotation Zrotation
							JOINT RightForeArm
							{
								OFFSET 0.000000 -0.000003 17.672592
								CHANNELS 3 Xrotation Yrotation Zrotation
								JOINT RightForeArmRoll
								{
									OFFSET 0.000000 -0.000001 6.808716
									CHANNELS 3 Xrotation Yrotation Zrotation
									JOINT RightHand
									{
										OFFSET 0.000000 -0.000002 13.663605
										CHANNELS 3 Xrotation Yrotation Zrotation
										End Site
										{
											OFFSET 0.000000 0.000000 0.100006
										}
									}
								}
							}
						}
					}
				}
				JOINT LeftShoulder
				{
					OFFSET 3.573071 0.497524 9.163864
					CHANNELS 3 Xrotation Yrotation Zrotation
					JOINT LeftArm
					{
						OFFSET 0.000000 -0.000002 12.019196
						CHANNELS 3 Xrotation Yrotation Zrotation
						JOINT LeftArmRoll
						{
							OFFSET 0.000000 -0.000001 6.067551
							CHANNELS 3 Xrotation Yrotation Zrotation
							JOINT LeftForeArm
							{
								OFFSET 0.000000 -0.000003 17.672592
								CHANNELS 3 Xrotation Yrotation Zrotation
								JOINT LeftForeArmRoll
								{
									OFFSET 0.000000 -0.000001 6.808716
									CHANNELS 3 Xrotation Yrotation Zrotation
									JOINT LeftHand
									{
										OFFSET 0.000000 -0.000002 13.663605
										CHANNELS 3 Xrotation Yrotation Zrotation
										End Site
										{
											OFFSET 0.000000 0.000000 0.100006
										}
									}
								}
							}
						}
					}
				}
			}
		}
	}
	JOINT RightUpLeg
	{
		OFFSET -5.277740 0.811859 -0.967796
		CHANNELS 3 Xrotation Yrotation Zrotation
		JOINT RightUpLegRoll
		{
			OFFSET 0.000000 -0.000003 16.021400
			CHANNELS 3 Xrotation Yrotation Zrotation
			JOINT RightLeg
			{
				OFFSET 0.000000 0.000003 -19.840103
				CHANNELS 3 Xrotation Yrotation Zrotation
				JOINT RightLegRoll
				{
					OFFSET 0.000000 -0.000003 19.904999
					CHANNELS 3 Xrotation Yrotation Zrotation
					JOINT RightFoot
					{
						OFFSET 0.000000 -0.000002 16.567497
						CHANNELS 3 Xrotation Yrotation Zrotation
						JOINT RightToeBase
						{
							OFFSET 0.000000 -0.000002 13.849602
							CHANNELS 3 Xrotation Yrotation Zrotation
							End Site
							{
								OFFSET 0.005871 0.773116 6.707275
							}
						}
					}
				}
			}
		}
	}
	JOINT LeftUpLeg
	{
		OFFSET 5.277740 0.811859 -0.967796
		CHANNELS 3 Xrotation Yrotation Zrotation
		JOINT LeftUpLegRoll
		{
			OFFSET 0.000000 -0.000003 16.021500
			CHANNELS 3 Xrotation Yrotation Zrotation
			JOINT LeftLeg
			{
				OFFSET 0.000000 -0.000003 19.840004
				CHANNELS 3 Xrotation Yrotation Zrotation
				JOINT LeftLegRoll
				{
					OFFSET 0.000000 -0.000003 20.089005
					CHANNELS 3 Xrotation Yrotation Zrotation
					JOINT LeftFoot
					{
						OFFSET 0.000000 -0.000003 16.383499
						CHANNELS 3 Xrotation Yrotation Zrotation
						JOINT LeftToeBase
						{
							OFFSET 0.000000 -0.000002 13.849594
							CHANNELS 3 Xrotation Yrotation Zrotation
							End Site
							{
								OFFSET -0.026310 0.773116 6.707275
							}
						}
					}
				}
			}
		}
	}
}
MOTION
Frames: 6
Frame Time: 0.041667
54.073002 -4.754338 92.146400 -0.411536 -2.878066 5.219085 -1.687879 0.921010 0.041724 0.626255 1.841130 0.096355 2.271675 1.842132 0.081296 22.211772 0.832821 -8.975562 -21.184660 -11.493993 -10.175646 -15.841712 -22.431472 -17.839281 -538.268521 -115.628395 -500.789251 0.000000 0.000001 -0.000001 47.361286 3.225595 -3.784851 0.000002 -0.000006 -2.999992 -5.000170 -7.999922 -0.000002 -7.126987 41.603256 6.846470 -526.400603 148.144344 475.231886 0.000005 -0.000003 0.000003 34.026882 -3.491526 3.322183 0.000006 -0.000009 3.000000 -5.000140 7.999931 -0.000009 -5.825859 -167.092751 3.900670 -179.999991 0.000005 -1.226997 162.633293 4.111354 -0.242527 -0.000000 0.000001 0.199503 68.840548 6.905735 2.120556 25.456953 -7.355615 0.000001 -3.868598 -185.663174 0.724950 -0.000005 -0.000005 -1.222290 -13.463078 -2.511773 0.051845 0.000002 -0.000001 0.212822 65.774360 -7.016912 -2.040336 25.456955 7.355613 0.000001 
53.968498 -4.702465 92.202995 -0.337854 -2.808541 5.249764 -1.693884 0.907626 0.041650 0.614254 1.814355 0.096464 2.259665 1.815358 0.081493 21.948084 0.671787 -8.965194 -21.010975 -11.339681 -10.129944 -16.001458 -22.683815 -18.075256 -538.664126 -114.999362 -501.749521 0.000000 0.000001 0.000003 47.016434 3.234229 -3.774588 0.000002 -0.000006 -2.999992 -5.000176 -7.999922 -0.000005 -7.144944 41.562869 6.866437 -526.610153 146.491479 476.037903 0.000004 -0.000003 0.000004 34.877077 -3.476645 3.351946 0.000007 -0.000006 3.000001 -5.000138 7.999930 -0.000012 -5.973153 -167.359770 3.827936 -179.999991 0.000005 -1.221000 162.440914 4.001141 -0.257134 -0.000000 0.000002 0.210498 68.900155 6.903773 2.121068 25.456953 -7.355613 -0.000000 -4.062600 -185.526188 0.741351 -0.000005 -0.000004 -1.217219 -13.703302 -2.414488 0.069966 0.000002 0.000000 0.195782 65.829957 -7.014811 -2.041821 25.456952 7.355612 0.000002 
53.932598 -4.664526 92.279503 -0.257169 -2.738832 5.283951 -1.699897 0.894752 0.041392 0.602249 1.788611 0.096368 2.247657 1.789613 0.081357 21.636526 0.488461 -8.954821 -20.797072 -11.156352 -10.076483 -16.191809 -22.962937 -18.356869 -538.996182 -114.400505 -502.630780 -0.000001 0.000000 -0.000001 46.708355 3.242038 -3.765760 0.000001 -0.000006 -2.999990 -5.000177 -7.999917 -0.000000 -7.178931 41.493416 6.904966 -526.824512 144.778659 476.885010 0.000003 -0.000003 0.000003 35.786865 -3.460164 3.383363 0.000005 -0.000006 2.999999 -5.000140 7.999928 -0.000014 -6.130648 -167.622978 3.759248 -179.999991 0.000005 -1.214006 162.242948 3.885277 -0.271932 -0.000000 0.000001 0.221197 68.958949 6.901818 2.121534 25.456948 -7.355613 -0.000000 -4.260599 -185.387194 0.757654 -0.000005 -0.000003 -1.212370 -13.932807 -2.315537 0.088117 0.000002 0.000001 0.179991 65.877830 -7.013070 -2.042882 25.456955 7.355612 0.000001 
54.012104 -4.690161 92.339096 -0.170719 -2.669248 5.321058 -1.705843 0.882360 0.040969 0.590361 1.763836 0.096084 2.235751 1.764816 0.080920 21.284278 0.287213 -8.945727 -20.548971 -10.948997 -10.017530 -16.408597 -23.267080 -18.678088 -539.265893 -113.829836 -503.434010 0.000001 -0.000001 0.000002 46.427832 3.249210 -3.757956 0.000003 -0.000006 -2.999992 -5.000177 -7.999917 -0.000001 -7.226593 41.399406 6.959353 -527.046739 143.018752 477.772935 0.000004 -0.000002 0.000004 36.741544 -3.442412 3.416060 0.000005 -0.000006 3.000000 -5.000145 7.999929 -0.000013 -6.296706 -167.881364 3.693850 -179.999991 0.000005 -1.207996 162.040146 3.763803 -0.288036 -0.000001 0.000000 0.231627 69.017108 6.899820 2.121835 25.456952 -7.355614 -0.000000 -4.461709 -185.247148 0.774211 -0.000004 -0.000005 -1.207710 -14.152698 -2.215395 0.106297 0.000001 -0.000000 0.165326 65.918907 -7.011687 -2.043555 25.456953 7.355612 0.000002 
53.903103 -4.633383 92.406502 -0.079740 -2.600117 5.360541 -1.711675 0.870419 0.040405 0.578706 1.739961 0.095623 2.224087 1.740928 0.080211 20.898514 0.072438 -8.939039 -20.272608 -10.722928 -9.955367 -16.647399 -23.594757 -19.032882 -539.475443 -113.285265 -504.161616 -0.000001 0.000001 -0.000001 46.165751 3.255922 -3.750779 -0.000001 -0.000007 -2.999994 -5.000177 -7.999919 -0.000003 -7.285646 41.285785 7.026961 -527.280495 141.224543 478.702059 0.000004 -0.000002 0.000005 37.726273 -3.423698 3.449652 0.000009 -0.000006 2.999999 -5.000139 7.999932 -0.000010 -6.469563 -168.137852 3.631422 -179.999991 0.000005 -1.201999 161.833396 3.639611 -0.304687 -0.000000 0.000001 0.241815 69.074632 6.897777 2.122171 25.456953 -7.355613 0.000001 -4.665015 -185.104137 0.791148 -0.000005 -0.000004 -1.203201 -14.364590 -2.114505 0.124493 0.000002 0.000001 0.151670 65.954110 -7.010550 -2.043957 25.456955 7.355615 -0.000000 
53.947105 -4.589393 92.453201 0.014521 -2.531790 5.401831 -1.717342 0.858899 0.039723 0.567402 1.716936 0.095002 2.212775 1.717889 0.079268 20.486174 -0.151444 -8.935709 -19.973906 -10.483151 -9.892041 -16.903849 -23.944476 -19.415274 -539.628111 -112.765426 -504.817096 0.000001 0.000000 0.000001 45.913081 3.262344 -3.743821 -0.000001 -0.000005 -2.999990 -5.000176 -7.999919 -0.000002 -7.353738 41.157091 7.105089 -527.528513 139.408778 479.671727 0.000004 -0.000003 0.000003 38.726442 -3.404347 3.483754 0.000003 -0.000006 2.999999 -5.000146 7.999932 -0.000012 -6.647618 -168.390432 3.571023 -179.999991 0.000004 -1.196002 161.623326 3.513698 -0.321635 -0.000001 0.000000 0.251789 69.131726 6.895668 2.122624 25.456952 -7.355614 -0.000001 -4.869621 -184.958149 0.808744 -0.000005 -0.000005 -1.198841 -14.569594 -2.013353 0.142701 0.000002 -0.000002 0.138902 65.984449 -7.009577 -2.044105 25.456947 7.355613 0.000000 
